<?xml version="1.0" encoding="utf-8"?>
<!-- Generator: Adobe Illustrator 19.0.0, SVG Export Plug-In . SVG Version: 6.00 Build 0)  -->
<svg version="1.2" baseProfile="tiny" id="Layer_1" xmlns="http://www.w3.org/2000/svg" xmlns:xlink="http://www.w3.org/1999/xlink"
	 x="0px" y="0px" viewBox="0 0 360 119.9" xml:space="preserve">
<g>
	<rect x="-0.4" y="0.5" fill="#333333" width="360" height="119.9"/>
	<path fill="#FFFFFF" d="M64.4,97.2L51.3,80.9l11.8-15.6c0.2-0.2,0.4-0.3,0.4-0.9c0-0.2-0.4-0.5-0.7-0.7L59,61.9
		c-0.4-0.2-0.7-0.4-1-0.4c-0.3,0-0.8,0.4-0.9,0.7l-12.2,17h-0.1V63.5c0-1-0.2-1.2-1.2-1.2h-5.2c-1,0-1.2,0.2-1.2,1.2v35.8
		c0,1,0.2,1.2,1.2,1.2h5.2c0.9,0,1.2-0.2,1.2-1.2V83.7h0.1l12.8,17c0.2,0.3,0.6,0.7,1,0.7c0.3,0,0.5-0.2,1-0.4l4.5-2.2
		c0.3-0.2,0.7-0.5,0.7-0.7C64.8,97.5,64.6,97.4,64.4,97.2"/>
	<path fill="#FFFFFF" d="M86.6,91.7V81c0-5.8-2.6-9-9.6-9c-4.3,0-9.8,1.3-9.8,2.6c0,0.2,0.1,0.4,0.2,0.7l1.1,3.4
		c0.1,0.2,0.3,0.6,0.6,0.6c0.7,0,3.8-1.7,6.9-1.7c3.5,0,3.9,1.6,3.9,4.1v1.7c-4.4,0-14.5,0-14.5,9.4c0,5.2,3.2,8.6,8.3,8.6
		c4.2,0,6.1-2.2,7.2-3.3c0.3,1.4,1.1,3.3,1.6,3.3c0.2,0,0.5-0.2,0.7-0.2l4.2-1.7c0.3-0.1,0.5-0.3,0.5-0.5
		C88,97.9,86.6,97.1,86.6,91.7 M79.9,94.1c-0.7,0.7-2.1,2.1-4.2,2.1c-2.1,0-3.7-1.6-3.7-3.8c0-4.9,6.4-4.4,7.8-4.4V94.1z"/>
	<path fill="#FFFFFF" d="M109,72c-4.4,0-6.9,2.4-8.5,3.8c-0.6-2.6-1.1-3.8-1.8-3.8c-0.2,0-0.5,0.1-0.8,0.2l-4.2,1.4
		c-0.4,0.1-0.6,0.3-0.6,0.6c0,1.3,1.1,0.8,1.1,8.7v16.8c0,0.6,0.1,0.8,0.8,0.8h5.5c0.7,0,0.8-0.2,0.8-0.8V80.2
		c0.7-0.7,2.6-2.3,4.9-2.3c2.8,0,3.1,2.6,3.1,4.7v17.1c0,0.6,0.1,0.8,0.8,0.8h5.5c0.7,0,0.8-0.2,0.8-0.8V80.2
		C116.2,73.4,112,72,109,72"/>
	<path fill="#FFFFFF" d="M140.5,98.9l-1.1-4.6c-0.1-0.2-0.2-0.3-0.5-0.3c-0.8,0-2.2,1-4.4,1c-1.9,0-1.9-1.6-1.9-3.4V78.2h5.5
		c0.7,0,0.8-0.1,1-0.8l0.7-3.3c0-0.2,0-0.3,0-0.5c0-0.6-0.4-0.6-0.9-0.6h-6.3v-7.8c0-0.7-0.1-0.9-0.6-0.9c-0.3,0-0.6,0.1-0.7,0.1
		l-4.9,0.7c-0.8,0.1-0.9,0.3-0.9,1v7h-3.9c-0.7,0-0.8,0.2-0.8,0.8v3.6c0,0.6,0.1,0.8,0.8,0.8h3.9v12.5c0,5.1,0,10.7,7.2,10.7
		c3.8,0,7.8-1.1,7.8-2.1C140.6,99.1,140.5,99.1,140.5,98.9"/>
	<path fill="#FFFFFF" d="M155.1,72c-7.5,0-12.1,5.7-12.1,14.7c0,9,4.6,14.7,12.1,14.7c7.5,0,12.1-5.7,12.1-14.7
		C167.2,77.8,162.6,72,155.1,72 M155.1,95.9c-3.9,0-4.6-3.9-4.6-9.1c0-5.2,0.7-9.1,4.6-9.1c3.8,0,4.6,3.9,4.6,9.1
		C159.7,92,159,95.9,155.1,95.9"/>
	<path fill="#FFFFFF" d="M186.7,83.1h-13.6c-1,0-1.2,0.2-1.2,1.2v4.1c0,1,0.2,1.2,1.2,1.2h13.6c1,0,1.2-0.2,1.2-1.2v-4.1
		C187.8,83.2,187.7,83.1,186.7,83.1"/>
	<path fill="#F9D023" d="M208.9,62.4h-8.2c-0.7,0-0.8,0-1,0.8L192.1,99c-0.1,0.2-0.1,0.7-0.1,0.8c0,0.3,0.1,0.6,0.8,0.6h5.4
		c0.7,0,0.8-0.1,1-0.8l3.1-14.5h2.9c8.2,0,15.4-4.3,15.4-14.3C220.5,63.5,214.8,62.4,208.9,62.4 M205.2,79.2h-1.7l2.3-10.8h2.3
		c2.9,0,5.1,0.6,5.1,3.8C213.2,77.1,210.2,79.2,205.2,79.2"/>
	<path fill="#F9D023" d="M239.3,72c-4.3,0-7.1,4-8.6,5.6c0-3.1-0.5-5.6-1.1-5.6c-0.3,0-0.4,0.1-0.6,0.2l-4.4,1.7
		c-0.3,0.1-0.7,0.2-0.7,0.6c0,1,0.5,1.8,0.5,3.4c0,1.8-0.4,3.2-0.7,4.6L220,99.3c-0.1,0.2-0.1,0.4-0.1,0.6c0,0.4,0.3,0.5,0.7,0.5
		h5.2c0.6,0,0.6,0,0.8-0.7l2.4-11c0.8-3.7,3.3-10.1,7.6-10.1c0.9,0,1.5,0.4,1.9,0.4c0.1,0,0.3-0.2,0.3-0.3l2.3-5.6
		c0.1-0.2,0.1-0.3,0.1-0.4C241.2,72.3,240.2,72,239.3,72"/>
	<path fill="#F9D023" d="M251.8,60.2c-2.2,0-4.6,1.8-4.6,4.6c0,2.6,2.1,4.6,4.6,4.6c2.5,0,4.6-2,4.6-4.6
		C256.4,62,254,60.2,251.8,60.2 M252.8,73h-10.3c-0.6,0-0.7,0.1-0.8,0.7l-0.6,3.1c-0.1,0.2-0.1,0.4-0.1,0.7c0,0.4,0.2,0.5,0.7,0.5
		h4.2l-4.5,21.3c-0.1,0.2-0.1,0.4-0.1,0.6c0,0.4,0.3,0.5,0.7,0.5h5.2c0.6,0,0.7,0,0.8-0.7l5.4-25.6c0.1-0.2,0.1-0.5,0.1-0.7
		C253.5,73.2,253.3,73,252.8,73"/>
	<path fill="#F9D023" d="M290.2,72c-5,0-8.1,3.8-9.3,5.7h-0.1c0-3.7-1.6-5.7-4.7-5.7c-4.6,0-7.7,3.8-9.2,5.6c0-3.1-0.5-5.6-1.1-5.6
		c-0.3,0-0.4,0.1-0.6,0.2l-4.4,1.7c-0.3,0.1-0.7,0.2-0.7,0.6c0,1,0.5,1.8,0.5,3.4c0,1.8-0.3,3.2-0.7,4.6l-3.8,16.7
		c0,0.2,0,0.4,0,0.6c0,0.4,0.3,0.5,0.7,0.5h5.2c0.6,0,0.7,0,0.8-0.7l2.4-11c0.9-4,3.1-10.9,7.2-10.9c1.3,0,1.9,0.9,1.9,2.2
		c0,1.2-0.3,2.3-0.5,3.4l-3.6,15.9c0,0.2-0.1,0.4-0.1,0.6c0,0.4,0.3,0.5,0.7,0.5h5.2c0.6,0,0.7,0,0.8-0.7l2.4-11
		c0.9-4,3.1-10.9,7.3-10.9c1.2,0,1.7,0.9,1.7,2.2c0,1.2-0.2,2.3-0.5,3.4l-3.7,15.9c0,0.2-0.1,0.4-0.1,0.6c0,0.4,0.3,0.5,0.7,0.5h5.2
		c0.5,0,0.7,0,0.8-0.7l4.1-17.6c0.3-1.4,0.5-2.9,0.5-4.3C295.1,74.1,293.5,72,290.2,72"/>
	<path fill="#F9D023" d="M322.8,79.4c0-4.5-3-7.4-8.2-7.4c-8.6,0-15.7,7.9-15.7,19c0,6.2,3,10.4,9.7,10.4c5.7,0,10.8-2.7,10.8-3.5
		c0-0.2-0.1-0.3-0.2-0.5l-1.4-3.4c-0.1-0.2-0.2-0.4-0.4-0.4c-0.8,0-3.8,2.2-7.1,2.2c-5.2,0-4.8-4.3-4.8-6
		C308.6,89.9,322.8,89.9,322.8,79.4 M313.5,77.1c1.7,0,2.6,1.3,2.6,2.7c0,5.1-7.5,5.1-9.9,5.1C306.7,82.8,308.3,77.1,313.5,77.1"/>
	<path d="M144.8,40.5c19.3-11.8,48.5-9.7,60,11.8c1.6,2.7,2.6,5.8,3.7,8.8C194.3,37.2,169.9,33.7,144.8,40.5"/>
	<path d="M208.5,60.7c5.1-14.1,23.8-24.6,37.2-15.1C230.9,43.3,219.3,51.1,208.5,60.7"/>
	<path fill="#1A1A1A" d="M284.4,33.6l-6.4,1.5l-9,2.1l-19.6,4.6c-0.2-0.7-0.3-1.4-0.4-2.1c-1.1-9.8,6-18.7,15.8-19.8
		C274,18.8,282.3,24.8,284.4,33.6"/>
	<path fill="#FFFFFF" d="M284.7,35.7c1.1,9.8-6,18.7-15.8,19.8c-9.1,1-17.4-5-19.5-13.7l19.6-4.6l9-2.1l6.4-1.5
		C284.5,34.3,284.7,35,284.7,35.7"/>
	<path fill="#F9D023" d="M257.5,20.9c0.4,0.3,0.8,0.5,1.1,0.8c0.4,0.3,0.7,0.6,1,0.9c0.4,0.4,0.7,0.7,1.1,1.2c0.7,0.8,1.3,1.7,2,2.7
		c0.2,0.3,0.4,0.7,0.6,1c1.4,2.4,2.6,5.2,3.7,8c0.1,0.3,0.3,0.7,0.4,1c0.1,0.3,0.2,0.6,0.2,1c0,0.3,0,0.6-0.1,0.8
		c-0.2,0.3-0.5,0.3-0.7,0.4c-2.1,0.3-4.2,1-6.3,2.1c-0.2,0.1-0.5,0.3-0.7,0.1c-0.1-0.1-0.2-0.4-0.3-0.6c-0.1-0.3-0.1-0.5-0.2-0.8
		c-0.2-0.7-0.4-1.3-0.6-2c-0.8-2.4-1.8-4.7-2.9-6.8c-0.4-0.6-0.7-1.3-1.1-1.9c-0.3-0.5-0.6-0.9-0.9-1.4c-0.3-0.4-0.5-0.7-0.8-1.1
		c-0.2-0.3-0.4-0.5-0.6-0.8l-0.3,0L257.5,20.9z"/>
	<path fill="#F9D023" d="M284.8,31.6c-0.4,0.1-0.7,0.2-1.1,0.4l-0.1,0c-0.4,0.2-0.8,0.3-1.2,0.5c-1,0.5-2,1-2.9,1.6
		c-0.2,0.2-0.5,0.3-0.8,0.1l-0.1-0.1c-0.1-0.1-0.2-0.4-0.3-0.6l0-0.1c0-0.2,0-0.3,0-0.5c-0.2-2.4-3.5-6.4-6.6-11
		c-0.4-0.5-0.7-1.1-1.1-1.6c-0.3-0.5-0.6-1-0.9-1.5C276.7,20,282.5,24.9,284.8,31.6"/>
	<path display="none" fill="#F9D023" d="M284.8,31.6c-0.4,0.1-0.7,0.2-1.1,0.4l-0.1,0c-0.4,0.2-0.8,0.3-1.2,0.5c-1,0.5-2,1-2.9,1.6
		c-0.2,0.2-0.5,0.3-0.8,0.1l-0.1-0.1c-0.1-0.1-0.2-0.4-0.3-0.6l0-0.1c0-0.2,0-0.3,0-0.5c-0.2-2.4-3-6.4-6.6-11
		c-0.4-0.5-0.7-1.1-1.1-1.6c-0.3-0.5-0.6-1-0.9-1.5C276.7,20,282.5,24.9,284.8,31.6"/>
	<rect x="264.8" y="19.7" transform="matrix(0.2281 0.9736 -0.9736 0.2281 242.709 -230.7896)" width="4.2" height="35.9"/>
	<path fill="#FFFFFF" d="M278,35.2c0.3,2.5-1.5,4.8-4.1,5.1c-2.5,0.3-4.8-1.5-5.1-4.1c-0.3-2.5,1.5-4.8,4.1-5.1
		C275.5,30.9,277.7,32.7,278,35.2"/>
	<path d="M286,35.5c-0.2-1.5-0.5-2.9-1-4.2c-2.3-6.7-8.2-11.5-15.1-12.6c-1.7-0.3-3.4-0.3-5.2-0.1c-2.6,0.3-5.1,1.1-7.3,2.3
		c-2.1,1.2-4,2.8-5.5,4.6c-3.2,3.9-4.8,9-4.2,14.3c1.2,10.5,10.7,18.1,21.2,17C279.6,55.6,287.2,46.1,286,35.5 M251.3,43.5
		c-0.2-0.6-0.4-1.3-0.6-2c-0.2-0.6-0.3-1.3-0.3-1.9l0-0.1c-0.5-4.4,0.9-8.7,3.4-11.9c1.5-2,3.6-3.7,5.9-4.8c1.7-0.8,3.5-1.3,5.4-1.6
		c2.4-0.3,4.8,0,6.9,0.7c4.8,1.5,8.7,5.2,10.5,10c0.1,0.1,0.1,0.3,0.1,0.4c0.2,0.5,0.3,1,0.5,1.6c0.2,0.6,0.3,1.3,0.3,1.9l0,0.1
		c0.9,9.1-5.6,17.3-14.7,18.3C261,55.1,253.9,50.5,251.3,43.5"/>
	<path d="M279.1,35.1c0-0.1,0-0.2,0-0.3c0-0.3-0.1-0.6-0.2-0.9c-0.1-0.2-0.2-0.5-0.3-0.7c-0.1-0.2-0.1-0.3-0.2-0.4
		c-1.1-1.9-3.3-3.1-5.6-2.8c-2.8,0.3-4.9,2.6-5.1,5.3c0,0.3,0,0.7,0,1c0,0.4,0.1,0.7,0.2,1c0.2,0.7,0.6,1.3,1,1.9
		c1.2,1.5,3.1,2.3,5.1,2.1c2.5-0.3,4.5-2.1,5-4.5C279.2,36.4,279.2,35.7,279.1,35.1 M276.4,37.6c-0.5,0.9-1.5,1.5-2.6,1.6
		c-0.8,0.1-1.6-0.1-2.2-0.5c-0.7-0.4-1.2-1-1.5-1.8c-0.1-0.2-0.2-0.5-0.2-0.8c-0.1-0.5,0-0.9,0.1-1.3c0.4-1.3,1.5-2.3,3-2.5
		c1.2-0.1,2.2,0.3,3,1.1c0.5,0.5,0.8,1.2,0.9,1.9v0C277,36.2,276.8,37,276.4,37.6"/>
</g>
</svg>
