<?xml version="1.0" encoding="utf-8"?>
<!-- Generator: Adobe Illustrator 19.0.0, SVG Export Plug-In . SVG Version: 6.00 Build 0)  -->
<svg version="1.2" baseProfile="tiny" id="Layer_1" xmlns="http://www.w3.org/2000/svg" xmlns:xlink="http://www.w3.org/1999/xlink"
	 x="0px" y="0px" viewBox="0 0 302 92.5" xml:space="preserve">
<g>
	<rect x="-27.4" y="-14" fill="#333333" width="360" height="119.9"/>
	<path fill="#FFFFFF" d="M37.4,82.6L24.3,66.4l11.8-15.6c0.2-0.2,0.4-0.3,0.4-0.9c0-0.2-0.4-0.5-0.7-0.7L32,47.3
		c-0.4-0.2-0.7-0.4-1-0.4c-0.3,0-0.8,0.4-0.9,0.7l-12.2,17h-0.1V49c0-1-0.2-1.2-1.2-1.2h-5.2c-1,0-1.2,0.2-1.2,1.2v35.8
		c0,1,0.2,1.2,1.2,1.2h5.2c0.9,0,1.2-0.2,1.2-1.2V69.1h0.1l12.8,17c0.2,0.3,0.6,0.7,1,0.7c0.3,0,0.5-0.2,1-0.4l4.5-2.2
		c0.3-0.2,0.7-0.5,0.7-0.7C37.8,83,37.6,82.9,37.4,82.6"/>
	<path fill="#FFFFFF" d="M59.6,77.2V66.5c0-5.8-2.6-9-9.6-9c-4.3,0-9.8,1.3-9.8,2.6c0,0.2,0.1,0.4,0.2,0.7l1.1,3.4
		c0.1,0.2,0.3,0.6,0.6,0.6c0.7,0,3.8-1.7,6.9-1.7c3.5,0,3.9,1.6,3.9,4.1v1.7c-4.4,0-14.5,0-14.5,9.4c0,5.2,3.2,8.6,8.3,8.6
		c4.2,0,6.1-2.2,7.2-3.3c0.3,1.4,1.1,3.3,1.6,3.3c0.2,0,0.5-0.2,0.7-0.2l4.2-1.7c0.3-0.1,0.5-0.3,0.5-0.5
		C61,83.3,59.6,82.6,59.6,77.2 M52.9,79.6c-0.7,0.7-2.1,2.1-4.2,2.1c-2.1,0-3.7-1.6-3.7-3.8c0-4.9,6.4-4.4,7.8-4.4V79.6z"/>
	<path fill="#FFFFFF" d="M82,57.5c-4.4,0-6.9,2.4-8.5,3.8c-0.6-2.6-1.1-3.8-1.8-3.8c-0.2,0-0.5,0.1-0.8,0.2l-4.2,1.4
		c-0.4,0.1-0.6,0.3-0.6,0.6c0,1.3,1.1,0.8,1.1,8.7v16.8c0,0.6,0.1,0.8,0.8,0.8h5.5c0.7,0,0.8-0.2,0.8-0.8V65.6
		c0.7-0.7,2.6-2.3,4.9-2.3c2.8,0,3.1,2.6,3.1,4.7v17.1c0,0.6,0.1,0.8,0.8,0.8h5.5c0.7,0,0.8-0.2,0.8-0.8V65.6
		C89.2,58.9,85,57.5,82,57.5"/>
	<path fill="#FFFFFF" d="M113.5,84.3l-1.1-4.6c-0.1-0.2-0.2-0.3-0.5-0.3c-0.8,0-2.2,1-4.4,1c-1.9,0-1.9-1.6-1.9-3.4V63.6h5.5
		c0.7,0,0.8-0.1,1-0.8l0.7-3.3c0-0.2,0-0.3,0-0.5c0-0.6-0.4-0.6-0.9-0.6h-6.3v-7.8c0-0.7-0.1-0.9-0.6-0.9c-0.3,0-0.6,0.1-0.7,0.1
		l-4.9,0.7c-0.8,0.1-0.9,0.3-0.9,1v7h-3.9c-0.7,0-0.8,0.2-0.8,0.8v3.6c0,0.6,0.1,0.8,0.8,0.8h3.9v12.5c0,5.1,0,10.7,7.2,10.7
		c3.8,0,7.8-1.1,7.8-2.1C113.6,84.6,113.5,84.6,113.5,84.3"/>
	<path fill="#FFFFFF" d="M128.1,57.5c-7.5,0-12.1,5.7-12.1,14.7c0,9,4.6,14.7,12.1,14.7c7.5,0,12.1-5.7,12.1-14.7
		C140.2,63.2,135.6,57.5,128.1,57.5 M128.1,81.3c-3.9,0-4.6-3.9-4.6-9.1c0-5.2,0.7-9.1,4.6-9.1c3.8,0,4.6,3.9,4.6,9.1
		C132.7,77.4,132,81.3,128.1,81.3"/>
	<path fill="#FFFFFF" d="M159.7,68.5h-13.6c-1,0-1.2,0.2-1.2,1.2v4.1c0,1,0.2,1.2,1.2,1.2h13.6c1,0,1.2-0.2,1.2-1.2v-4.1
		C160.8,68.7,160.7,68.5,159.7,68.5"/>
	<path fill="#F9D023" d="M181.9,47.8h-8.2c-0.7,0-0.8,0-1,0.8l-7.6,35.9c-0.1,0.2-0.1,0.7-0.1,0.8c0,0.3,0.1,0.6,0.8,0.6h5.4
		c0.7,0,0.8-0.1,1-0.8l3.1-14.5h2.9c8.2,0,15.4-4.3,15.4-14.3C193.5,48.9,187.8,47.8,181.9,47.8 M178.2,64.7h-1.7l2.3-10.8h2.3
		c2.9,0,5.1,0.6,5.1,3.8C186.2,62.6,183.2,64.7,178.2,64.7"/>
	<path fill="#F9D023" d="M212.3,57.5c-4.3,0-7.1,4-8.6,5.6c0-3.1-0.5-5.6-1.1-5.6c-0.3,0-0.4,0.1-0.6,0.2l-4.4,1.7
		c-0.3,0.1-0.7,0.2-0.7,0.6c0,1,0.5,1.8,0.5,3.4c0,1.8-0.4,3.2-0.7,4.6L193,84.8c-0.1,0.2-0.1,0.4-0.1,0.6c0,0.4,0.3,0.5,0.7,0.5
		h5.2c0.6,0,0.6,0,0.8-0.7l2.4-11c0.8-3.7,3.3-10.1,7.6-10.1c0.9,0,1.5,0.4,1.9,0.4c0.1,0,0.3-0.2,0.3-0.3l2.3-5.6
		c0.1-0.2,0.1-0.3,0.1-0.4C214.2,57.7,213.2,57.5,212.3,57.5"/>
	<path fill="#F9D023" d="M224.8,45.7c-2.2,0-4.6,1.8-4.6,4.6c0,2.6,2.1,4.6,4.6,4.6c2.5,0,4.6-2,4.6-4.6
		C229.4,47.5,227,45.7,224.8,45.7 M225.8,58.5h-10.3c-0.6,0-0.7,0.1-0.8,0.7l-0.6,3.1c-0.1,0.2-0.1,0.4-0.1,0.7
		c0,0.4,0.2,0.5,0.7,0.5h4.2l-4.5,21.3c-0.1,0.2-0.1,0.4-0.1,0.6c0,0.4,0.3,0.5,0.7,0.5h5.2c0.6,0,0.7,0,0.8-0.7l5.4-25.6
		c0.1-0.2,0.1-0.5,0.1-0.7C226.5,58.6,226.3,58.5,225.8,58.5"/>
	<path fill="#F9D023" d="M263.2,57.5c-5,0-8.1,3.8-9.3,5.7h-0.1c0-3.7-1.6-5.7-4.7-5.7c-4.6,0-7.7,3.8-9.2,5.6
		c0-3.1-0.5-5.6-1.1-5.6c-0.3,0-0.4,0.1-0.6,0.2l-4.4,1.7c-0.3,0.1-0.7,0.2-0.7,0.6c0,1,0.5,1.8,0.5,3.4c0,1.8-0.3,3.2-0.7,4.6
		l-3.8,16.7c0,0.2,0,0.4,0,0.6c0,0.4,0.3,0.5,0.7,0.5h5.2c0.6,0,0.7,0,0.8-0.7l2.4-11c0.9-4,3.1-10.9,7.2-10.9
		c1.3,0,1.9,0.9,1.9,2.2c0,1.2-0.3,2.3-0.5,3.4l-3.6,15.9c0,0.2-0.1,0.4-0.1,0.6c0,0.4,0.3,0.5,0.7,0.5h5.2c0.6,0,0.7,0,0.8-0.7
		l2.4-11c0.9-4,3.1-10.9,7.3-10.9c1.2,0,1.7,0.9,1.7,2.2c0,1.2-0.2,2.3-0.5,3.4l-3.7,15.9c0,0.2-0.1,0.4-0.1,0.6
		c0,0.4,0.3,0.5,0.7,0.5h5.2c0.5,0,0.7,0,0.8-0.7l4.1-17.6c0.3-1.4,0.5-2.9,0.5-4.3C268.1,59.5,266.5,57.5,263.2,57.5"/>
	<path fill="#F9D023" d="M295.8,64.9c0-4.5-3-7.4-8.2-7.4c-8.6,0-15.7,7.9-15.7,19c0,6.2,3,10.4,9.7,10.4c5.7,0,10.8-2.7,10.8-3.5
		c0-0.2-0.1-0.3-0.2-0.5l-1.4-3.4c-0.1-0.2-0.2-0.4-0.4-0.4c-0.8,0-3.8,2.2-7.1,2.2c-5.2,0-4.8-4.3-4.8-6
		C281.6,75.4,295.8,75.4,295.8,64.9 M286.5,62.5c1.7,0,2.6,1.3,2.6,2.7c0,5.1-7.5,5.1-9.9,5.1C279.7,68.3,281.3,62.5,286.5,62.5"/>
	<path fill="#FCFCFC" d="M117.8,25.9c19.3-11.8,48.5-9.7,60,11.8c1.6,2.7,2.6,5.8,3.7,8.8C167.3,22.7,142.9,19.2,117.8,25.9"/>
	<path fill="#FCFCFC" d="M181.5,46.2c5.1-14.1,23.8-24.6,37.2-15.1C203.9,28.8,192.3,36.5,181.5,46.2"/>
	<path fill="#1A1A1A" d="M257.4,19l-6.4,1.5l-9,2.1l-19.6,4.6c-0.2-0.7-0.3-1.4-0.4-2.1c-1.1-9.8,6-18.7,15.8-19.8
		C247,4.3,255.3,10.3,257.4,19"/>
	<path fill="#FFFFFF" d="M257.7,21.1c1.1,9.8-6,18.7-15.8,19.8c-9.1,1-17.4-5-19.5-13.7l19.6-4.6l9-2.1l6.4-1.5
		C257.5,19.7,257.7,20.4,257.7,21.1"/>
	<path fill="#F9D023" d="M230.5,6.4c0.4,0.3,0.8,0.5,1.1,0.8c0.4,0.3,0.7,0.6,1,0.9c0.4,0.4,0.7,0.7,1.1,1.2c0.7,0.8,1.3,1.7,2,2.7
		c0.2,0.3,0.4,0.7,0.6,1c1.4,2.4,2.6,5.2,3.7,8c0.1,0.3,0.3,0.7,0.4,1c0.1,0.3,0.2,0.6,0.2,1c0,0.3,0,0.6-0.1,0.8
		c-0.2,0.3-0.5,0.3-0.7,0.4c-2.1,0.3-4.2,1-6.3,2.1c-0.2,0.1-0.5,0.3-0.7,0.1c-0.1-0.1-0.2-0.4-0.3-0.6c-0.1-0.3-0.1-0.5-0.2-0.8
		c-0.2-0.7-0.4-1.3-0.6-2c-0.8-2.4-1.8-4.7-2.9-6.8c-0.4-0.6-0.7-1.3-1.1-1.9c-0.3-0.5-0.6-0.9-0.9-1.4c-0.3-0.4-0.5-0.7-0.8-1.1
		c-0.2-0.3-0.4-0.5-0.6-0.8l-0.3,0L230.5,6.4z"/>
	<path fill="#F9D023" d="M257.8,17c-0.4,0.1-0.7,0.2-1.1,0.4l-0.1,0c-0.4,0.2-0.8,0.3-1.2,0.5c-1,0.5-2,1-2.9,1.6
		c-0.2,0.2-0.5,0.3-0.8,0.1l-0.1-0.1c-0.1-0.1-0.2-0.4-0.3-0.6l0-0.1c0-0.2,0-0.3,0-0.5c-0.2-2.4-3.5-6.4-6.6-11
		c-0.4-0.5-0.7-1.1-1.1-1.6c-0.3-0.5-0.6-1-0.9-1.5C249.7,5.5,255.5,10.4,257.8,17"/>
	<path display="none" fill="#F9D023" d="M257.8,17c-0.4,0.1-0.7,0.2-1.1,0.4l-0.1,0c-0.4,0.2-0.8,0.3-1.2,0.5c-1,0.5-2,1-2.9,1.6
		c-0.2,0.2-0.5,0.3-0.8,0.1l-0.1-0.1c-0.1-0.1-0.2-0.4-0.3-0.6l0-0.1c0-0.2,0-0.3,0-0.5c-0.2-2.4-3-6.4-6.6-11
		c-0.4-0.5-0.7-1.1-1.1-1.6c-0.3-0.5-0.6-1-0.9-1.5C249.7,5.5,255.5,10.4,257.8,17"/>
	<rect x="237.8" y="5.2" transform="matrix(0.2281 0.9736 -0.9736 0.2281 207.7074 -215.7279)" width="4.2" height="35.9"/>
	<path fill="#FFFFFF" d="M251,20.7c0.3,2.5-1.5,4.8-4.1,5.1c-2.5,0.3-4.8-1.5-5.1-4.1c-0.3-2.5,1.5-4.8,4.1-5.1
		C248.5,16.3,250.7,18.2,251,20.7"/>
	<path d="M259,21c-0.2-1.5-0.5-2.9-1-4.2c-2.3-6.7-8.2-11.5-15.1-12.6c-1.7-0.3-3.4-0.3-5.2-0.1c-2.6,0.3-5.1,1.1-7.3,2.3
		c-2.1,1.2-4,2.8-5.5,4.6c-3.2,3.9-4.8,9-4.2,14.3c1.2,10.5,10.7,18.1,21.2,17C252.6,41.1,260.2,31.5,259,21 M224.3,28.9
		c-0.2-0.6-0.4-1.3-0.6-2c-0.2-0.6-0.3-1.3-0.3-1.9l0-0.1c-0.5-4.4,0.9-8.7,3.4-11.9c1.5-2,3.6-3.7,5.9-4.8c1.7-0.8,3.5-1.3,5.4-1.6
		c2.4-0.3,4.8,0,6.9,0.7c4.8,1.5,8.7,5.2,10.5,10c0.1,0.1,0.1,0.3,0.1,0.4c0.2,0.5,0.3,1,0.5,1.6c0.2,0.6,0.3,1.3,0.3,1.9l0,0.1
		c0.9,9.1-5.6,17.3-14.7,18.3C234,40.5,226.9,35.9,224.3,28.9"/>
	<path d="M252.1,20.6c0-0.1,0-0.2,0-0.3c0-0.3-0.1-0.6-0.2-0.9c-0.1-0.2-0.2-0.5-0.3-0.7c-0.1-0.2-0.1-0.3-0.2-0.4
		c-1.1-1.9-3.3-3.1-5.6-2.8c-2.8,0.3-4.9,2.6-5.1,5.3c0,0.3,0,0.7,0,1c0,0.4,0.1,0.7,0.2,1c0.2,0.7,0.6,1.3,1,1.9
		c1.2,1.5,3.1,2.3,5.1,2.1c2.5-0.3,4.5-2.1,5-4.5C252.2,21.8,252.2,21.2,252.1,20.6 M249.4,23.1c-0.5,0.9-1.5,1.5-2.6,1.6
		c-0.8,0.1-1.6-0.1-2.2-0.5c-0.7-0.4-1.2-1-1.5-1.8c-0.1-0.2-0.2-0.5-0.2-0.8c-0.1-0.5,0-0.9,0.1-1.3c0.4-1.3,1.5-2.3,3-2.5
		c1.2-0.1,2.2,0.3,3,1.1c0.5,0.5,0.8,1.2,0.9,1.9v0C250,21.6,249.8,22.4,249.4,23.1"/>
</g>
</svg>
